<svg width="15" height="19" viewBox="0 0 15 19" fill="none" xmlns="http://www.w3.org/2000/svg">
<path d="M13.5 2.61005C13.5 2.77494 13.4121 2.99276 13.1193 3.25093C12.8272 3.50844 12.3758 3.76314 11.7751 3.98714C10.5773 4.43374 8.88919 4.7201 7 4.7201C5.11081 4.7201 3.42268 4.43374 2.22494 3.98714C1.62418 3.76314 1.17284 3.50844 0.880736 3.25093C0.587873 2.99276 0.5 2.77494 0.5 2.61005C0.5 2.44516 0.587873 2.22734 0.880736 1.96917C1.17284 1.71167 1.62418 1.45696 2.22494 1.23296C3.42268 0.786364 5.11081 0.5 7 0.5C8.88919 0.5 10.5773 0.786364 11.7751 1.23296C12.3758 1.45696 12.8272 1.71167 13.1193 1.96917C13.4121 2.22734 13.5 2.44516 13.5 2.61005Z" fill="white" stroke="black"/>
<path d="M0.504395 2.55452V15.2716C1.84839 18.8257 11.3124 18.9923 13.5524 15.2716V2.55452" stroke="black"/>
<path d="M3.75586 13.439C3.75586 13.7151 3.97972 13.939 4.25586 13.939C4.532 13.939 4.75586 13.7151 4.75586 13.439H3.75586ZM4.25586 7.2193L4.7097 7.00947C4.61118 6.79639 4.3777 6.68054 4.14843 6.73098C3.91917 6.78141 3.75586 6.98455 3.75586 7.2193H4.25586ZM7.13154 13.439L6.6777 13.6488C6.76023 13.8273 6.93973 13.9409 7.13638 13.939C7.33303 13.9371 7.5103 13.8201 7.58935 13.64L7.13154 13.439ZM9.85586 7.2339H10.3559C10.3559 6.99734 10.1901 6.79315 9.95855 6.74456C9.72703 6.69598 9.49314 6.81629 9.39804 7.0329L9.85586 7.2339ZM9.35586 13.439C9.35586 13.7151 9.57972 13.939 9.85586 13.939C10.132 13.939 10.3559 13.7151 10.3559 13.439H9.35586ZM4.75586 13.439V7.2193H3.75586V13.439H4.75586ZM3.80202 7.42913L6.6777 13.6488L7.58537 13.2292L4.7097 7.00947L3.80202 7.42913ZM7.58935 13.64L10.3137 7.43491L9.39804 7.0329L6.67372 13.238L7.58935 13.64ZM9.35586 7.2339V13.439H10.3559V7.2339H9.35586Z" fill="black"/>
</svg>